<svg width="31" height="19" viewBox="0 0 31 19" fill="none" xmlns="http://www.w3.org/2000/svg">
<path d="M0.958662 16.4692L10.3351 1.49719C10.7477 0.838348 11.7213 0.881612 12.0739 1.57445L13.8475 5.06006C13.9995 5.35883 13.9917 5.71391 13.8267 6.00573L7.33257 17.4922C7.15515 17.806 6.82256 18 6.46207 18H1.80618C1.02034 18 0.541561 17.1352 0.958662 16.4692Z" stroke="#B98E30" stroke-width="1.2"/>
<path d="M12.2015 13.7096L14.6465 9.70544C15.0364 9.06696 15.9636 9.06696 16.3535 9.70544L18.7985 13.7096C19.2053 14.376 18.7257 15.2308 17.945 15.2308H13.055C12.2743 15.2308 11.7947 14.376 12.2015 13.7096Z" stroke="#B98E30" stroke-width="1.2"/>
<path d="M23.6674 17.4922L17.1733 6.00573C17.0083 5.71391 17.0005 5.35883 17.1525 5.06006L18.9261 1.57445C19.2787 0.881612 20.2523 0.838346 20.6649 1.49718L30.0413 16.4692C30.4584 17.1352 29.9797 18 29.1938 18H24.5379C24.1774 18 23.8448 17.806 23.6674 17.4922Z" stroke="#B98E30" stroke-width="1.2"/>
</svg>
